<svg width="161" height="48" viewBox="0 0 161 48" fill="none" xmlns="http://www.w3.org/2000/svg">
    <path fill-rule="evenodd" clip-rule="evenodd" d="M1.2207e-05 11C1.2207e-05 5.05653 4.81814 0.238403 10.7616 0.238403H51.6117C57.5552 0.238403 62.3733 5.05653 62.3733 11C62.3733 16.9435 57.5552 21.7616 51.6117 21.7616H35.4017C34.1654 21.7616 33.1632 22.7638 33.1632 24C33.1632 25.2362 34.1654 26.2384 35.4017 26.2384H150.003C155.947 26.2384 160.765 31.0565 160.765 37C160.765 42.9435 155.947 47.7616 150.003 47.7616H10.7616C4.81813 47.7616 0 42.9435 0 37C0 31.0565 4.81813 26.2384 10.7616 26.2384H26.9716C28.2078 26.2384 29.21 25.2362 29.21 24C29.21 22.7638 28.2078 21.7616 26.9716 21.7616H10.7616C4.81814 21.7616 1.2207e-05 16.9435 1.2207e-05 11ZM63.7516 42.1239C62.9974 42.1239 62.4076 42.0178 61.9835 41.8031C61.5581 41.5898 61.2612 41.2703 61.0916 40.8423C60.9219 40.4155 60.8371 39.888 60.8371 39.2571V35.688C60.8371 34.6634 61.0651 33.908 61.5223 33.4229C61.9782 32.9378 62.7218 32.694 63.7529 32.694H68.5467C69.2796 32.694 69.8389 32.7337 70.2273 32.8146C70.6143 32.8941 70.8091 32.9776 70.8091 33.0624L70.491 34.3904C70.3108 34.3586 69.7766 34.3242 68.89 34.2857C68.0033 34.2486 66.7164 34.2301 65.0279 34.2301H64.2154C63.3659 34.2301 62.9418 34.6091 62.9418 35.3672V39.4493C62.9418 39.8125 63.0345 40.0921 63.2201 40.2896C63.4056 40.4871 63.7383 40.5851 64.2154 40.5851H64.8688C66.6316 40.5851 67.9993 40.5666 68.9708 40.5295C69.9423 40.4924 70.5453 40.4526 70.7786 40.4089L71.432 41.4652C71.432 41.5182 71.3445 41.599 71.1696 41.7051C70.9946 41.8124 70.6726 41.9078 70.2061 41.9927C69.7382 42.0775 69.0649 42.1212 68.1836 42.1212H63.7555L63.7516 42.1239ZM28.2322 42.1238V33.9927L28.0732 32.6966H35.1294C35.8093 32.6966 36.3421 32.788 36.7304 32.9683C37.1174 33.1498 37.405 33.3871 37.5906 33.68C37.7761 33.9742 37.8954 34.2857 37.9484 34.617C38.0014 34.9483 38.0279 35.2624 38.0279 35.562V36.507C38.0279 36.7521 37.9908 37.0278 37.9166 37.3313C37.8424 37.6348 37.7045 37.9291 37.5031 38.2114C37.3016 38.4937 37.0087 38.7296 36.627 38.9151C36.2453 39.102 35.7457 39.1948 35.1294 39.1948H33.5045C32.8352 39.1948 32.2109 39.1789 31.6331 39.1471C31.0539 39.1152 30.6218 39.0887 30.3356 39.0675V42.1251H28.2335L28.2322 42.1238ZM30.3342 37.6574H34.6668C35.1453 37.6574 35.474 37.5394 35.6542 37.3048C35.8345 37.0702 35.9246 36.7879 35.9246 36.4566V35.448C35.9246 35.106 35.8345 34.8184 35.6542 34.5839C35.474 34.3493 35.1492 34.2313 34.6827 34.2313H30.3342V37.6574ZM13.0358 42.1237C12.3135 42.1237 11.7833 42.0919 11.4427 42.0283C11.1034 41.9647 10.9324 41.8892 10.9324 41.8043L11.5699 40.4114C11.8138 40.4538 12.4221 40.4936 13.3936 40.532C14.3651 40.5691 15.7011 40.5877 17.4002 40.5877H17.7024C18.1583 40.5877 18.483 40.5055 18.6739 40.3398C18.8647 40.1742 18.9601 39.8945 18.9601 39.4995V39.1788C18.9601 38.8051 18.8833 38.5387 18.7295 38.3783C18.5758 38.2179 18.2325 38.1384 17.7024 38.1384H14.0073C12.9351 38.1384 12.1544 37.9383 11.6654 37.538C11.1763 37.1378 10.9324 36.4844 10.9324 35.5765V35.3207C10.9324 34.8515 11.0199 34.4195 11.1949 34.0245C11.3698 33.6295 11.6693 33.3128 12.0948 33.0716C12.5189 32.8317 13.1034 32.7111 13.8469 32.7111H18.1795C18.9018 32.7111 19.485 32.7482 19.9316 32.8237C20.3783 32.8979 20.6009 32.9788 20.6009 33.0636L20.2828 34.4089C20.0072 34.377 19.3803 34.3426 18.4035 34.3041C17.4267 34.267 16.1146 34.2485 14.4685 34.2485L14.2936 34.2326C13.8045 34.2326 13.4758 34.332 13.3062 34.5281C13.1365 34.7256 13.0451 34.9735 13.0358 35.273V35.5447C13.0358 35.8972 13.1339 36.161 13.33 36.3372C13.5262 36.5135 13.8535 36.601 14.3095 36.601H17.8455C18.5254 36.601 19.1046 36.6699 19.5817 36.8091C20.0602 36.9482 20.426 37.2014 20.6804 37.5698C20.9349 37.9383 21.0621 38.4803 21.0621 39.1947V39.4505C21.0621 40.251 20.858 40.8965 20.4485 41.3869C20.039 41.8772 19.3312 42.1237 18.3226 42.1237H13.0358ZM47.4725 32.7111L42.8059 42.1237H45.1306L46.1657 40.0907H51.8687L52.8084 42.1237H55.2616L50.6109 32.7111H47.4725ZM51.2802 38.5228H46.7422L48.9397 34.1531H49.0987L51.2802 38.5228ZM77.8007 32.7111V42.1237H86.4977C87.1988 42.1237 87.6932 42.1052 87.9795 42.0681C88.2657 42.0297 88.4089 41.9899 88.4089 41.9475L87.7714 40.5863H79.9027V38.0417H85.8602V36.4565H79.9027V34.2472H87.7078V32.7111H77.8007ZM97.9819 42.1238L97.966 34.2326H93.8243V32.6966H104.242V34.2326H100.084V42.1238H97.9819ZM110.613 32.7111V42.1237H112.715V32.7111H110.613ZM120.202 42.1239V33.9929L120.043 32.7126H122.464L126.064 39.1154L129.791 32.7126H131.94V42.1253H129.838V36.1545H129.663L129.042 37.5475L127.035 41.1657H125.108L123.101 37.5475L122.464 36.1545H122.305V42.1253H120.203L120.202 42.1239ZM139.268 32.7111V42.1237H147.965C148.666 42.1237 149.16 42.1052 149.447 42.0681C149.733 42.0297 149.876 41.9899 149.876 41.9475L149.239 40.5863H141.37V38.0417H147.327V36.4565H141.37V34.2472H149.175V32.7111H139.268ZM13.9613 8.47091V10.747V10.7483L10.9265 11.9737L13.9613 13.2052V15.4838L8.04073 13.1453H8.02851V10.8106H8.04073L13.9613 8.47091ZM48.4541 15.3628V13.0879L51.4865 11.8637L48.4541 10.6395V8.36341L54.3662 10.7006H54.3808V13.0378H54.3662L48.4541 15.3628ZM45.9153 5.14654L42.4382 17.0012H44.503L47.9801 5.14654H45.9153ZM23.5216 10.5577C23.5583 9.63043 23.2492 8.72634 22.6615 8.04094H22.6628C22.372 7.71717 22.0189 7.46305 21.6279 7.29567C21.237 7.12829 20.8179 7.05254 20.3964 7.07087C19.9444 7.0501 19.4935 7.12829 19.0708 7.29933C18.6481 7.47038 18.262 7.73183 17.9382 8.06659V7.31766H15.8735V15.6072H17.9382V11.9359C17.9382 10.0312 18.5846 9.07942 19.8772 9.07942C20.0934 9.06965 20.3097 9.11241 20.5088 9.20404C20.7067 9.29567 20.8839 9.43495 21.0256 9.60966C21.3274 10.0092 21.4813 10.5113 21.4569 11.022V15.6072H23.5216V10.5577ZM26.1497 3.86998V15.7246H28.2144V3.86998H26.1497ZM38.1583 15.2897H39.8798L42.7765 6.98543H40.57L38.9439 11.9677L37.2689 6.98543H35.6586L33.9836 11.9518L32.3574 6.98543H30.151L33.0453 15.2897H34.7655L36.4698 10.4063L38.1583 15.2897Z" fill="url(#paint0_linear_19_262)"/>
    <defs>
        <linearGradient id="paint0_linear_19_262" x1="12.8968" y1="4.52538e-07" x2="200.883" y2="58.5056" gradientUnits="userSpaceOnUse">
            <stop offset="0.251308" stop-color="#996DFF"/>
            <stop offset="0.623787" stop-color="#FF876E"/>
            <stop offset="1" stop-color="#FFD072"/>
        </linearGradient>
    </defs>
</svg>